<svg width="356" height="338" viewBox="0 0 356 338" fill="none" xmlns="http://www.w3.org/2000/svg">
<path d="M100 177.12C98.8 177.12 97.712 176.88 96.736 176.4C95.76 175.92 94.92 175.272 94.216 174.456C93.512 173.624 92.968 172.696 92.584 171.672C92.2 170.632 92.008 169.568 92.008 168.48C92.008 167.344 92.208 166.264 92.608 165.24C93.008 164.2 93.568 163.28 94.288 162.48C95.024 161.664 95.88 161.024 96.856 160.56C97.832 160.08 98.888 159.84 100.024 159.84C101.224 159.84 102.312 160.088 103.288 160.584C104.264 161.08 105.096 161.744 105.784 162.576C106.488 163.408 107.032 164.336 107.416 165.36C107.8 166.384 107.992 167.432 107.992 168.504C107.992 169.64 107.792 170.728 107.392 171.768C106.992 172.792 106.432 173.712 105.712 174.528C104.992 175.328 104.144 175.96 103.168 176.424C102.192 176.888 101.136 177.12 100 177.12ZM93.688 168.48C93.688 169.408 93.84 170.304 94.144 171.168C94.448 172.016 94.88 172.776 95.44 173.448C96 174.104 96.664 174.632 97.432 175.032C98.216 175.416 99.072 175.608 100 175.608C100.976 175.608 101.848 175.408 102.616 175.008C103.4 174.592 104.064 174.048 104.608 173.376C105.168 172.688 105.592 171.92 105.88 171.072C106.168 170.224 106.312 169.36 106.312 168.48C106.312 167.552 106.16 166.664 105.856 165.816C105.552 164.968 105.112 164.208 104.536 163.536C103.976 162.864 103.312 162.336 102.544 161.952C101.776 161.568 100.928 161.376 100 161.376C99.04 161.376 98.168 161.576 97.384 161.976C96.616 162.376 95.952 162.92 95.392 163.608C94.848 164.28 94.424 165.04 94.12 165.888C93.832 166.736 93.688 167.6 93.688 168.48ZM118.095 177.12C116.751 177.12 115.615 176.88 114.687 176.4C113.759 175.92 113.023 175.28 112.479 174.48C111.935 173.664 111.535 172.744 111.279 171.72C111.039 170.696 110.919 169.64 110.919 168.552V159.96H112.575V168.552C112.575 169.432 112.663 170.296 112.839 171.144C113.031 171.992 113.335 172.752 113.751 173.424C114.167 174.096 114.727 174.632 115.431 175.032C116.135 175.416 117.015 175.608 118.071 175.608C119.159 175.608 120.055 175.408 120.759 175.008C121.479 174.592 122.039 174.048 122.439 173.376C122.855 172.704 123.151 171.952 123.327 171.12C123.503 170.272 123.591 169.416 123.591 168.552V159.96H125.271V168.552C125.271 169.688 125.143 170.776 124.887 171.816C124.631 172.856 124.215 173.768 123.639 174.552C123.079 175.336 122.343 175.96 121.431 176.424C120.519 176.888 119.407 177.12 118.095 177.12ZM141.373 161.448H135.301V177H133.621V161.448H127.549V159.96H141.373V161.448ZM156.203 177.12C155.003 177.12 153.915 176.88 152.939 176.4C151.963 175.92 151.123 175.272 150.419 174.456C149.715 173.624 149.171 172.696 148.787 171.672C148.403 170.632 148.211 169.568 148.211 168.48C148.211 167.344 148.411 166.264 148.811 165.24C149.211 164.2 149.771 163.28 150.491 162.48C151.227 161.664 152.083 161.024 153.059 160.56C154.035 160.08 155.091 159.84 156.227 159.84C157.427 159.84 158.515 160.088 159.491 160.584C160.467 161.08 161.299 161.744 161.987 162.576C162.691 163.408 163.235 164.336 163.619 165.36C164.003 166.384 164.195 167.432 164.195 168.504C164.195 169.64 163.995 170.728 163.595 171.768C163.195 172.792 162.635 173.712 161.915 174.528C161.195 175.328 160.347 175.96 159.371 176.424C158.395 176.888 157.339 177.12 156.203 177.12ZM149.891 168.48C149.891 169.408 150.043 170.304 150.347 171.168C150.651 172.016 151.083 172.776 151.643 173.448C152.203 174.104 152.867 174.632 153.635 175.032C154.419 175.416 155.275 175.608 156.203 175.608C157.179 175.608 158.051 175.408 158.819 175.008C159.603 174.592 160.267 174.048 160.811 173.376C161.371 172.688 161.795 171.92 162.083 171.072C162.371 170.224 162.515 169.36 162.515 168.48C162.515 167.552 162.363 166.664 162.059 165.816C161.755 164.968 161.315 164.208 160.739 163.536C160.179 162.864 159.515 162.336 158.747 161.952C157.979 161.568 157.131 161.376 156.203 161.376C155.243 161.376 154.371 161.576 153.587 161.976C152.819 162.376 152.155 162.92 151.595 163.608C151.051 164.28 150.627 165.04 150.323 165.888C150.035 166.736 149.891 167.6 149.891 168.48ZM167.363 177V159.96H178.547V161.448H169.043V167.712H177.059V169.104H169.043V177H167.363ZM197.01 163.152C196.77 162.88 196.49 162.64 196.17 162.432C195.85 162.208 195.49 162.016 195.09 161.856C194.69 161.696 194.258 161.568 193.794 161.472C193.346 161.376 192.866 161.328 192.354 161.328C190.866 161.328 189.77 161.616 189.066 162.192C188.378 162.752 188.034 163.52 188.034 164.496C188.034 165.168 188.194 165.696 188.514 166.08C188.85 166.464 189.37 166.776 190.074 167.016C190.778 167.256 191.674 167.504 192.762 167.76C193.978 168.016 195.026 168.32 195.906 168.672C196.786 169.024 197.466 169.504 197.946 170.112C198.426 170.704 198.666 171.512 198.666 172.536C198.666 173.32 198.514 174 198.21 174.576C197.906 175.152 197.482 175.632 196.938 176.016C196.394 176.4 195.746 176.688 194.994 176.88C194.242 177.056 193.418 177.144 192.522 177.144C191.642 177.144 190.794 177.056 189.978 176.88C189.178 176.688 188.418 176.416 187.698 176.064C186.978 175.696 186.306 175.232 185.682 174.672L186.522 173.304C186.826 173.624 187.186 173.928 187.602 174.216C188.034 174.488 188.506 174.736 189.018 174.96C189.546 175.184 190.106 175.36 190.698 175.488C191.306 175.6 191.93 175.656 192.57 175.656C193.93 175.656 194.986 175.408 195.738 174.912C196.506 174.416 196.89 173.68 196.89 172.704C196.89 172 196.698 171.44 196.314 171.024C195.93 170.592 195.354 170.24 194.586 169.968C193.818 169.696 192.874 169.432 191.754 169.176C190.57 168.904 189.57 168.6 188.754 168.264C187.938 167.928 187.322 167.488 186.906 166.944C186.506 166.384 186.306 165.648 186.306 164.736C186.306 163.68 186.562 162.792 187.074 162.072C187.602 161.336 188.322 160.784 189.234 160.416C190.146 160.032 191.194 159.84 192.378 159.84C193.13 159.84 193.826 159.92 194.466 160.08C195.122 160.224 195.722 160.44 196.266 160.728C196.826 161.016 197.346 161.376 197.826 161.808L197.01 163.152ZM213.701 161.448H207.629V177H205.949V161.448H199.877V159.96H213.701V161.448ZM222.508 177.12C221.308 177.12 220.22 176.88 219.244 176.4C218.268 175.92 217.428 175.272 216.724 174.456C216.02 173.624 215.476 172.696 215.092 171.672C214.708 170.632 214.516 169.568 214.516 168.48C214.516 167.344 214.716 166.264 215.116 165.24C215.516 164.2 216.076 163.28 216.796 162.48C217.532 161.664 218.388 161.024 219.364 160.56C220.34 160.08 221.396 159.84 222.532 159.84C223.732 159.84 224.82 160.088 225.796 160.584C226.772 161.08 227.604 161.744 228.292 162.576C228.996 163.408 229.54 164.336 229.924 165.36C230.308 166.384 230.5 167.432 230.5 168.504C230.5 169.64 230.3 170.728 229.9 171.768C229.5 172.792 228.94 173.712 228.22 174.528C227.5 175.328 226.652 175.96 225.676 176.424C224.7 176.888 223.644 177.12 222.508 177.12ZM216.196 168.48C216.196 169.408 216.348 170.304 216.652 171.168C216.956 172.016 217.388 172.776 217.948 173.448C218.508 174.104 219.172 174.632 219.94 175.032C220.724 175.416 221.58 175.608 222.508 175.608C223.484 175.608 224.356 175.408 225.124 175.008C225.908 174.592 226.572 174.048 227.116 173.376C227.676 172.688 228.1 171.92 228.388 171.072C228.676 170.224 228.82 169.36 228.82 168.48C228.82 167.552 228.668 166.664 228.364 165.816C228.06 164.968 227.62 164.208 227.044 163.536C226.484 162.864 225.82 162.336 225.052 161.952C224.284 161.568 223.436 161.376 222.508 161.376C221.548 161.376 220.676 161.576 219.892 161.976C219.124 162.376 218.46 162.92 217.9 163.608C217.356 164.28 216.932 165.04 216.628 165.888C216.34 166.736 216.196 167.6 216.196 168.48ZM232.539 168.36C232.539 167.32 232.715 166.304 233.067 165.312C233.435 164.304 233.963 163.392 234.651 162.576C235.339 161.744 236.187 161.088 237.195 160.608C238.203 160.112 239.347 159.864 240.627 159.864C242.147 159.864 243.443 160.216 244.515 160.92C245.603 161.608 246.403 162.496 246.915 163.584L245.595 164.4C245.227 163.648 244.763 163.056 244.203 162.624C243.643 162.176 243.043 161.856 242.403 161.664C241.779 161.472 241.155 161.376 240.531 161.376C239.507 161.376 238.603 161.584 237.819 162C237.035 162.4 236.371 162.944 235.827 163.632C235.299 164.304 234.899 165.064 234.627 165.912C234.355 166.744 234.219 167.592 234.219 168.456C234.219 169.4 234.379 170.304 234.699 171.168C235.019 172.032 235.467 172.8 236.043 173.472C236.619 174.128 237.291 174.656 238.059 175.056C238.843 175.44 239.691 175.632 240.603 175.632C241.243 175.632 241.899 175.52 242.571 175.296C243.243 175.072 243.867 174.728 244.443 174.264C245.035 173.8 245.507 173.2 245.859 172.464L247.251 173.184C246.899 174.032 246.355 174.752 245.619 175.344C244.883 175.936 244.059 176.384 243.147 176.688C242.251 176.992 241.371 177.144 240.507 177.144C239.339 177.144 238.267 176.896 237.291 176.4C236.315 175.888 235.467 175.216 234.747 174.384C234.043 173.536 233.499 172.592 233.115 171.552C232.731 170.496 232.539 169.432 232.539 168.36ZM250.12 177V159.984H251.8V169.872L261.184 159.96H263.032L256.072 167.448L263.392 177H261.496L254.992 168.456L251.8 171.768V177H250.12Z" fill="#8D8F9A"/>
<path opacity="0.5" d="M0 0H356V338H0V0Z" fill="white"/>
</svg>
